<?xml version="1.0" standalone="no"?>
<!DOCTYPE svg PUBLIC "-//W3C//DTD SVG 20010904//EN"
 "http://www.w3.org/TR/2001/REC-SVG-20010904/DTD/svg10.dtd">
<svg version="1.0" xmlns="http://www.w3.org/2000/svg"
 width="440.000000pt" height="440.000000pt" viewBox="0 0 440.000000 440.000000"
 preserveAspectRatio="xMidYMid meet">
<metadata>
Created by potrace 1.14, written by Peter Selinger 2001-2017
</metadata>
<g transform="translate(0.000000,440.000000) scale(0.100000,-0.100000)"
fill="#000000" stroke="none">
<path d="M1931 4293 c70 -106 124 -203 114 -203 -3 0 -26 15 -52 34 -114 82
-251 116 -462 116 -143 0 -277 -19 -401 -56 -90 -28 -160 -59 -160 -72 0 -4
44 -20 98 -35 133 -38 243 -91 332 -162 81 -64 170 -151 170 -166 0 -5 -25 -9
-56 -9 -62 0 -197 -28 -192 -40 5 -13 346 -360 353 -360 4 0 30 17 59 37 l51
38 -26 -35 c-57 -77 -57 -76 8 -143 57 -60 44 -55 -27 10 -19 18 -38 33 -41
33 -23 0 -58 -173 -59 -289 0 -9 -4 -22 -9 -30 -7 -12 -21 -4 -66 37 -31 29
-61 52 -65 52 -5 0 -23 -20 -40 -44 -28 -41 -37 -75 -25 -88 3 -3 7 -87 8
-188 l2 -182 28 -23 27 -24 -20 -39 c-17 -32 -18 -44 -9 -70 11 -32 45 -60 57
-47 3 3 -2 21 -12 39 -31 59 7 96 99 96 48 0 65 -17 65 -64 0 -32 34 -36 50
-7 15 29 13 45 -14 84 l-25 36 20 63 c10 35 19 78 19 96 0 29 3 32 20 27 39
-12 41 5 8 65 l-32 58 37 44 c53 64 177 189 307 312 81 77 131 116 170 133 30
13 86 40 123 59 47 24 69 30 71 22 2 -7 11 -38 20 -68 49 -166 60 -326 31
-447 -9 -40 -17 -73 -18 -73 -1 0 -47 -13 -102 -29 -119 -34 -218 -78 -209
-93 7 -11 197 -5 243 8 15 5 22 3 18 -3 -3 -5 -36 -18 -72 -28 l-66 -19 6 -35
c19 -102 99 -243 163 -286 l35 -24 -29 -6 c-97 -21 -122 -27 -146 -37 -39 -15
-36 -32 5 -24 72 15 287 36 363 36 110 0 259 -16 429 -46 77 -13 144 -24 148
-24 17 0 -13 28 -43 40 -51 21 -36 35 39 35 63 0 73 3 100 29 16 16 33 41 36
57 8 37 -21 98 -57 118 -18 11 -26 21 -22 31 4 8 21 56 39 107 32 91 33 92 39
55 3 -21 10 -132 16 -246 6 -115 13 -213 16 -218 3 -5 12 -7 19 -5 14 6 0 -79
-36 -228 -23 -92 -37 -265 -22 -265 5 0 29 26 53 58 l43 57 -6 -40 c-4 -22 -7
-97 -7 -166 l0 -126 -49 5 c-44 4 -51 2 -65 -21 -16 -23 -16 -33 -2 -120 9
-52 18 -101 21 -109 6 -16 -89 -75 -251 -156 -326 -163 -689 -243 -1039 -229
-133 6 -256 21 -277 33 -4 3 6 24 23 48 35 49 50 105 40 143 -12 46 -29 37
-41 -20 -14 -68 -57 -137 -103 -166 -19 -11 -65 -29 -102 -38 -130 -32 -255 9
-293 96 -20 46 -19 135 2 185 9 22 14 41 11 44 -2 3 -21 -12 -41 -33 l-36 -38
-79 79 c-130 129 -201 248 -240 405 -18 69 -21 103 -17 199 7 151 37 241 169
502 54 109 120 255 145 325 25 70 57 151 70 180 28 63 146 255 185 303 16 19
29 39 29 45 -1 5 -101 113 -224 239 -198 202 -226 227 -247 221 -36 -10 -169
-76 -169 -84 0 -3 30 -21 66 -40 84 -44 169 -105 294 -216 l101 -88 -128 -42
c-135 -44 -176 -61 -171 -74 2 -4 57 -52 123 -106 66 -54 122 -99 124 -101 13
-11 -126 -353 -188 -459 -199 -341 -250 -488 -238 -685 3 -52 13 -120 21 -150
8 -30 14 -55 13 -57 -2 -1 -23 8 -48 20 l-46 22 -7 128 c-6 110 -5 131 8 146
21 23 22 227 2 283 l-13 36 74 67 c106 96 166 195 179 296 5 40 3 53 -11 69
-10 11 -22 20 -26 20 -4 0 -19 4 -32 9 l-25 10 25 78 c17 52 26 103 27 151 1
69 -1 75 -27 98 -58 50 -112 19 -151 -86 l-25 -65 -1 87 c0 78 -3 89 -26 117
-20 24 -34 31 -63 31 -56 0 -75 -28 -101 -145 -11 -54 -23 -101 -25 -103 -2
-3 -7 9 -11 24 -30 134 -75 189 -131 162 -47 -22 -55 -51 -48 -171 l6 -108
-42 46 c-23 25 -48 45 -55 45 -8 0 -14 -2 -14 -3 0 -2 25 -41 55 -86 30 -45
55 -90 55 -100 0 -10 9 -26 19 -35 17 -16 26 -16 75 -6 61 12 181 15 262 4 58
-7 70 4 34 29 -20 14 -20 17 -6 48 8 19 33 88 56 154 48 138 62 156 97 123 30
-28 30 -75 -2 -175 -14 -43 -25 -90 -25 -104 0 -32 -75 -136 -104 -145 -12 -4
-49 -20 -84 -37 -49 -24 -69 -41 -88 -72 -25 -44 -32 -109 -13 -121 15 -9 24
8 38 71 12 53 13 55 77 85 35 16 69 30 76 30 6 0 35 27 65 59 29 33 62 63 73
66 27 9 57 -10 64 -40 10 -38 -73 -200 -122 -239 -20 -17 -64 -56 -98 -88 -55
-53 -65 -58 -105 -58 -24 0 -87 -7 -139 -16 -52 -8 -111 -17 -130 -20 l-35 -6
-18 79 c-10 48 -17 120 -17 186 0 121 -5 136 -85 250 -25 36 -45 69 -45 75 0
6 11 24 25 40 21 25 23 32 11 41 -18 15 -51 -17 -60 -57 -5 -26 43 -142 98
-232 18 -30 20 -48 18 -125 -2 -61 4 -119 17 -180 11 -49 15 -91 10 -93 -46
-17 -69 -87 -69 -215 0 -53 3 -62 30 -87 l30 -28 0 -151 0 -150 39 -73 c66
-125 224 -366 310 -472 31 -38 76 -95 101 -127 25 -32 81 -104 125 -161 44
-57 91 -120 104 -140 29 -48 62 -51 87 -9 14 24 19 27 31 16 7 -8 13 -16 13
-20 0 -11 44 -65 53 -65 14 0 37 -27 37 -44 0 -9 8 -14 20 -13 11 1 20 7 20
15 0 7 -5 10 -10 7 -7 -4 -8 7 -5 32 12 73 13 113 5 113 -5 0 -11 -10 -13 -22
l-4 -23 -2 23 c0 12 -8 34 -17 47 -11 17 -14 36 -10 55 6 33 -1 60 -16 60 -6
0 -7 -13 -3 -31 10 -46 -12 -28 -26 21 -10 34 -10 43 4 58 10 10 17 27 16 38
-1 15 -3 14 -9 -6 -5 -16 -8 15 -7 80 1 103 2 105 20 87 25 -25 33 -15 13 15
-9 12 -16 27 -16 33 0 5 5 3 10 -5 8 -12 10 -9 10 12 0 31 -16 46 -23 21 -3
-11 -6 -6 -7 12 l-2 30 -7 -30 -7 -30 -5 37 c-3 20 -1 34 3 32 4 -3 8 7 8 23
0 22 -2 25 -10 13 -8 -11 -9 -8 -4 11 3 15 1 30 -5 33 -6 4 -10 19 -10 34 2
24 2 24 6 4 2 -12 8 -20 12 -18 4 3 8 0 9 -7 6 -45 20 -98 21 -80 3 50 26 68
50 39 9 -10 8 -15 -3 -19 -10 -4 -13 -1 -9 9 3 7 0 14 -6 14 -14 0 -15 -37 -1
-45 6 -4 8 -10 5 -14 -2 -5 2 -32 9 -61 7 -28 12 -62 10 -74 -4 -18 -3 -17 6
3 6 14 8 30 6 38 -3 7 16 -9 42 -35 26 -26 46 -50 45 -53 -2 -4 9 -7 23 -7 30
0 43 -10 25 -21 -21 -13 4 -17 104 -16 92 0 105 -4 105 -41 0 -11 9 -39 20
-62 11 -22 20 -45 19 -49 0 -4 -9 10 -20 32 -15 32 -19 35 -19 17 0 -31 17
-62 35 -62 8 0 17 -15 21 -37 4 -20 16 -46 28 -58 12 -12 30 -39 41 -60 11
-22 30 -48 43 -58 12 -10 19 -23 16 -29 -4 -6 -2 -8 4 -4 6 3 18 -4 27 -16 15
-22 14 -24 -9 -44 -14 -12 -31 -24 -38 -27 -10 -3 -10 -7 -1 -17 9 -9 -6 -30
-68 -91 -80 -81 -96 -92 -84 -61 5 13 3 14 -5 6 -9 -9 -9 -17 -1 -33 7 -12 8
-21 3 -21 -6 0 -12 -10 -15 -22 -3 -13 -9 -33 -12 -45 l-7 -23 501 0 501 0 -6
43 c-4 23 -13 55 -21 70 -8 16 -12 35 -9 42 2 7 -2 16 -9 19 -15 5 -13 21 8
64 9 18 7 25 -9 36 -10 8 -21 12 -23 10 -3 -2 4 -11 15 -18 17 -14 18 -16 3
-28 -9 -7 -19 -20 -23 -28 -3 -8 -3 -1 0 17 3 17 0 34 -5 38 -7 3 -11 -3 -11
-15 0 -19 -7 -16 -54 27 -48 43 -53 50 -42 68 7 11 15 31 18 45 3 14 9 34 12
45 7 18 6 18 -4 2 -6 -9 -19 -17 -28 -17 -13 0 -14 2 -4 9 8 4 14 12 13 17 0
5 9 23 20 39 19 28 20 28 14 5 -4 -16 -3 -20 3 -12 5 7 15 12 22 10 7 -2 15 4
17 12 4 13 3 13 -6 0 -6 -9 -11 -10 -11 -3 0 6 -3 18 -6 27 -3 9 -1 16 6 16 6
0 8 -5 4 -12 -4 -7 -3 -8 5 -4 7 5 9 16 5 28 -5 17 -3 20 11 14 14 -5 15 -4 7
7 -8 9 -5 23 13 52 14 22 28 48 31 58 4 9 14 17 24 17 10 0 23 7 30 15 11 13
10 14 -4 9 -10 -4 -16 -1 -17 7 0 8 -4 5 -9 -6 -7 -17 -9 -14 -11 15 -3 57 -6
77 -13 89 -4 6 -1 11 9 11 9 0 13 -4 10 -10 -3 -5 -1 -10 4 -10 6 0 11 7 11
15 0 22 28 18 53 -8 12 -12 19 -18 15 -13 -14 18 -9 21 32 22 42 1 59 9 47 21
-4 3 -17 1 -30 -6 -15 -8 -31 -9 -47 -3 -20 7 -15 10 34 16 32 3 67 11 78 17
13 7 23 7 31 0 8 -6 18 -6 27 -1 8 5 28 7 45 4 l30 -4 -30 14 c-38 19 -18 21
25 2 21 -8 28 -15 19 -18 -8 -3 9 -9 36 -12 28 -4 70 -16 93 -25 l44 -18 -39
0 c-22 0 -48 -6 -59 -12 -15 -10 -16 -11 -2 -7 10 3 21 -2 26 -11 7 -12 13
-13 30 -4 14 7 23 8 27 1 3 -5 1 -10 -4 -10 -6 0 -11 -7 -11 -15 0 -20 17 -19
30 3 8 13 9 8 4 -23 -4 -21 -16 -47 -28 -56 -12 -10 -18 -21 -13 -25 4 -4 20
5 36 20 l28 27 0 -40 c0 -22 -3 -38 -7 -36 -9 6 -23 -25 -15 -33 3 -3 5 1 5 8
0 7 2 11 5 8 3 -3 0 -18 -7 -33 -11 -24 -13 -25 -20 -8 -6 13 -7 10 -3 -9 3
-15 1 -36 -4 -45 -5 -10 -15 -32 -22 -50 -7 -17 -17 -29 -22 -26 -28 17 15
-53 78 -127 39 -47 84 -102 99 -123 19 -25 32 -34 40 -28 7 6 44 1 101 -14 50
-13 126 -26 171 -30 76 -6 83 -5 109 17 15 13 66 99 114 193 69 137 90 171
109 173 12 2 29 13 37 25 30 47 75 179 82 237 5 52 3 63 -13 74 -17 13 -15 19
34 117 28 57 56 125 62 150 10 39 20 52 80 97 82 63 137 122 156 168 14 33 10
54 -23 116 -2 3 14 9 36 13 23 4 41 12 41 18 0 33 -73 130 -185 246 -69 70
-125 133 -125 139 0 6 26 13 58 17 149 17 299 36 315 41 15 5 17 19 17 115 l0
110 -215 217 c-118 119 -215 220 -215 225 0 4 12 7 28 8 15 0 110 21 212 47
l185 47 0 65 0 65 -275 92 c-151 51 -282 92 -291 93 -12 0 -19 18 -28 78 -40
247 -176 471 -380 621 -115 84 -282 156 -392 168 -58 6 -59 6 -64 42 -23 147
-96 298 -199 409 -26 27 -37 32 -78 32 -26 0 -48 -3 -48 -6 0 -4 18 -63 40
-131 47 -148 52 -189 15 -124 -57 100 -139 173 -262 235 l-52 26 -260 0 -261
0 71 -107z m452 -394 c51 -26 70 -77 44 -113 -14 -18 -31 -21 -240 -43 -95 -9
-115 30 -47 95 61 60 185 91 243 61z m-455 -195 c28 -19 29 -63 2 -92 -27 -29
-85 -30 -100 -3 -16 31 -12 47 19 80 33 35 47 38 79 15z m1145 -614 c63 -175
62 -168 35 -163 -13 2 -61 -2 -108 -10 -47 -8 -86 -14 -88 -12 -2 1 9 17 24
34 29 35 69 150 80 230 4 28 8 50 9 49 1 -2 23 -59 48 -128z m463 -75 c209
-234 407 -470 535 -635 80 -103 173 -240 167 -246 -3 -2 -24 20 -49 48 -24 29
-102 121 -174 203 -229 263 -392 462 -564 690 -46 61 -89 116 -95 124 -8 10
-8 13 0 10 6 -2 87 -89 180 -194z m-2802 -34 c22 -24 23 -118 4 -263 l-12 -98
-61 0 -61 0 7 58 c3 31 14 93 22 137 9 44 19 100 23 125 3 25 8 48 11 53 8 14
50 7 67 -12z m-227 -79 c12 -28 41 -220 43 -278 0 -6 -18 -16 -41 -22 -38 -10
-41 -9 -50 15 -5 13 -9 34 -9 46 0 12 -7 73 -16 135 -15 105 -15 114 0 131 24
27 55 15 73 -27z m1126 -143 c5 -19 8 -20 22 -9 13 11 18 11 29 -1 11 -12 9
-31 -13 -114 -22 -83 -29 -100 -46 -102 -67 -6 -83 -4 -112 13 l-33 19 0 157
0 158 74 -50 c42 -29 76 -59 79 -71z m1541 -11 c3 -13 6 -64 6 -115 l0 -91
-31 -7 c-17 -4 -32 -5 -35 -3 -2 3 3 39 11 82 8 43 15 95 15 117 0 44 23 55
34 17z m-65 -15 c-15 -40 -38 -175 -32 -191 3 -7 0 -24 -7 -38 -18 -32 -11
-36 41 -25 24 6 48 6 52 2 11 -11 -13 -141 -26 -141 -5 0 -25 11 -43 25 -38
29 -57 24 -90 -27 -18 -28 -21 -29 -73 -23 -72 9 -337 9 -388 1 l-41 -7 -57
83 c-55 79 -115 189 -129 236 -7 20 -4 22 34 22 l41 0 -16 -31 c-9 -17 -14
-33 -11 -37 11 -10 91 20 186 69 94 50 94 50 250 65 85 8 189 21 230 28 41 8
78 14 82 15 4 1 3 -11 -3 -26z m207 -305 c22 -43 11 -76 -31 -94 -19 -8 -43
-14 -55 -14 -18 0 -17 5 17 74 20 41 40 73 45 70 4 -3 15 -19 24 -36z m-190
-118 c8 0 14 -7 14 -16 0 -11 -5 -14 -16 -10 -9 3 -33 9 -55 12 -44 7 -46 10
-23 35 16 18 18 18 42 -1 13 -11 31 -20 38 -20z m736 -266 c16 -8 38 -36 55
-71 26 -54 28 -66 27 -173 -1 -79 -6 -127 -17 -155 l-16 -40 0 102 c-1 119 -9
146 -50 168 -44 22 -69 19 -144 -19 l-67 -35 -16 24 c-19 29 -65 49 -103 43
l-30 -4 50 57 c98 114 214 152 311 103z m-260 -231 c23 -20 27 -50 30 -206 2
-96 0 -127 -9 -127 -24 0 -13 -16 20 -28 17 -7 83 -32 146 -54 62 -23 136 -56
164 -75 28 -19 53 -30 55 -24 2 6 34 34 70 63 37 29 75 63 85 75 24 29 40 29
57 -1 20 -37 6 -68 -57 -125 -133 -120 -141 -130 -158 -183 -10 -29 -39 -91
-66 -138 -27 -47 -49 -93 -49 -102 0 -9 -4 -19 -8 -22 -9 -5 -268 82 -325 109
-37 19 -53 43 -140 210 -17 34 -60 271 -52 286 4 5 21 9 39 9 55 0 98 -66 111
-171 6 -48 13 -61 51 -99 55 -54 86 -102 99 -155 6 -24 16 -40 25 -40 21 0 25
76 6 113 -16 31 -93 112 -107 112 -4 0 -11 17 -14 38 -10 57 -26 104 -47 139
-17 28 -20 56 -23 222 -4 169 -2 192 12 200 19 10 58 -2 85 -26z m253 7 c16
-18 17 -32 11 -117 -3 -54 -14 -134 -24 -178 l-17 -81 -57 14 -57 14 4 41 c30
279 36 313 63 320 37 10 60 6 77 -13z m-3106 -90 c1 -30 6 -83 11 -118 7 -53
15 -70 48 -106 59 -64 77 -151 77 -371 0 -134 -4 -182 -17 -225 -28 -87 -33
-91 -68 -50 -85 98 -199 245 -253 325 -33 50 -83 118 -109 152 -39 49 -51 73
-58 120 -11 65 -12 184 -2 256 l7 48 95 5 c53 2 130 15 175 27 93 27 93 27 94
-63z m2950 19 l-13 -42 -9 33 c-7 28 -5 37 9 47 25 18 27 11 13 -38z m354 -90
c7 -38 4 -65 -18 -143 -14 -54 -30 -108 -35 -121 l-9 -24 -41 22 c-31 17 -40
27 -37 42 4 16 50 185 73 263 2 8 15 12 31 10 25 -3 29 -9 36 -49z m96 -177
c-1 -12 -79 -75 -85 -69 -3 3 -1 21 5 40 11 31 16 35 46 35 19 0 35 -3 34 -6z
m-752 -315 c12 -28 32 -75 44 -103 l21 -50 -35 -75 c-20 -41 -44 -102 -54
-136 -10 -35 -20 -63 -23 -63 -3 0 -10 10 -15 21 -11 23 -65 48 -279 130 -71
27 -131 51 -134 53 -2 3 38 25 90 49 92 45 238 136 312 196 21 17 42 31 45 31
3 0 16 -24 28 -53z m-2150 -199 c-3 -8 -6 -5 -6 6 -1 11 2 17 5 13 3 -3 4 -12
1 -19z m610 -113 c130 -38 306 -51 476 -36 77 7 140 11 142 9 2 -2 5 -32 7
-68 l3 -64 -58 -18 c-86 -26 -215 -40 -362 -40 -132 0 -173 6 -303 44 -73 21
-73 21 -103 79 -31 62 -30 63 16 73 17 4 41 15 55 26 31 24 23 25 127 -5z
m1243 -66 c0 -6 -4 -7 -10 -4 -5 3 -10 11 -10 16 0 6 5 7 10 4 6 -3 10 -11 10
-16z m26 -11 l-6 -33 14 30 c18 37 20 25 4 -26 -11 -39 -12 -39 -30 -20 -22
24 -23 37 -3 45 8 3 15 12 15 21 0 8 3 15 6 15 3 0 3 -15 0 -32z m319 -144
c69 -58 131 -89 220 -110 41 -10 75 -20 75 -24 0 -9 -72 -167 -107 -235 -49
-95 -66 -109 -127 -102 -44 5 -243 61 -254 71 -2 2 8 55 22 118 13 62 32 160
41 218 10 58 19 111 21 117 5 19 48 -2 109 -53z m-1080 -263 c-6 -20 -45 -30
-45 -12 0 9 43 41 48 36 2 -2 1 -13 -3 -24z m24 -17 c-15 -18 -22 -13 -13 10
3 9 10 13 16 10 5 -3 4 -12 -3 -20z m-536 -19 c4 -9 -5 -19 -23 -29 -17 -8
-30 -13 -30 -11 0 3 39 49 46 54 1 1 4 -6 7 -14z"/>
<path d="M1217 3680 c-38 -10 -71 -21 -74 -24 -7 -7 18 -36 197 -233 74 -81
150 -166 168 -188 l33 -40 29 35 c16 19 40 47 54 61 15 15 26 29 26 32 0 4
-43 48 -96 99 -53 51 -132 135 -177 186 -44 50 -83 92 -86 91 -3 0 -37 -8 -74
-19z"/>
<path d="M2130 2491 c-44 -14 -88 -40 -104 -63 -20 -28 -21 -98 -1 -124 13
-17 14 -15 13 35 -2 48 0 56 26 76 39 31 98 48 129 36 32 -12 67 -58 67 -87 0
-13 -5 -35 -12 -49 -14 -30 -7 -39 25 -31 24 6 47 42 47 74 0 33 -54 102 -96
122 -43 21 -55 23 -94 11z"/>
<path d="M1550 2254 c-219 -34 -317 -115 -327 -274 -4 -57 -1 -72 24 -120 19
-38 37 -58 55 -64 39 -14 46 0 15 32 -110 115 -55 301 108 362 161 60 355 9
472 -124 52 -59 73 -120 73 -213 0 -59 3 -73 16 -73 23 0 48 68 47 131 -2 97
-63 194 -167 261 -88 57 -233 95 -316 82z"/>
<path d="M1516 1758 c-45 -46 -52 -104 -25 -204 18 -65 19 -82 9 -130 -15 -71
-6 -118 27 -144 47 -37 122 -18 156 39 32 55 48 237 28 338 -23 119 -125 172
-195 101z"/>
<path d="M650 898 c0 -50 73 -169 185 -303 37 -44 77 -100 90 -125 23 -46 85
-266 105 -375 18 -93 19 -95 50 -95 40 0 42 28 10 159 -26 105 -29 117 -31
124 0 1 -2 12 -3 25 -2 21 -1 21 13 8 9 -10 14 -30 13 -51 -2 -19 2 -43 7 -53
5 -9 12 -35 15 -56 4 -22 9 -42 13 -45 3 -3 3 15 -1 40 -5 36 -3 50 10 63 17
18 12 50 -9 43 -6 -2 -11 -15 -9 -28 2 -22 2 -22 -9 -5 -13 21 4 71 21 61 16
-10 12 5 -8 29 -9 13 -23 21 -31 18 -10 -3 -12 0 -8 12 5 13 3 15 -11 7 -14
-7 -17 -4 -19 17 0 14 -8 29 -17 34 -11 6 -15 16 -11 29 4 13 -3 30 -22 52
-15 19 -60 72 -99 118 -39 46 -106 131 -149 189 -95 128 -95 128 -95 108z"/>
<path d="M1300 829 c12 -8 9 -9 -12 -5 -21 5 -28 3 -28 -9 0 -8 -5 -15 -12
-15 -6 0 -9 -3 -6 -6 4 -3 16 0 28 6 20 11 21 10 15 -12 -5 -21 -5 -21 8 -6 8
10 18 14 22 10 5 -4 5 -2 1 5 -3 6 -1 15 5 19 8 4 7 9 -2 15 -20 13 -37 11
-19 -2z"/>
<path d="M1200 790 c0 -23 5 -40 11 -40 7 0 9 10 7 25 -3 14 -1 25 3 25 5 0 6
7 3 15 -11 28 -24 15 -24 -25z"/>
<path d="M2690 820 c0 -5 5 -10 10 -10 6 0 10 5 10 10 0 6 -4 10 -10 10 -5 0
-10 -4 -10 -10z"/>
<path d="M3035 731 c-3 -5 -1 -12 5 -16 5 -3 10 1 10 9 0 18 -6 21 -15 7z"/>
<path d="M1245 679 c-4 -6 -5 -12 -2 -15 2 -3 7 2 10 11 7 17 1 20 -8 4z"/>
<path d="M2586 661 c-4 -7 -5 -15 -2 -18 9 -9 19 4 14 18 -4 11 -6 11 -12 0z"/>
<path d="M2871 643 c-1 -12 -6 -23 -12 -25 -7 -2 -10 -10 -8 -16 3 -10 9 -9
24 2 16 11 17 17 8 37 -11 23 -12 24 -12 2z"/>
<path d="M2536 635 c4 -8 8 -15 10 -15 2 0 4 7 4 15 0 8 -4 15 -10 15 -5 0 -7
-7 -4 -15z"/>
<path d="M2820 630 c0 -5 5 -10 10 -10 6 0 10 5 10 10 0 6 -4 10 -10 10 -5 0
-10 -4 -10 -10z"/>
<path d="M1620 616 c0 -10 5 -14 11 -10 8 5 10 -1 7 -20 -3 -14 -1 -26 3 -26
15 0 10 47 -6 60 -12 10 -15 9 -15 -4z"/>
<path d="M2512 614 c-15 -16 -16 -34 -2 -34 6 0 9 4 8 9 -3 8 2 11 17 11 3 0
1 -8 -4 -18 -8 -14 -6 -19 5 -19 17 0 18 26 1 48 -10 14 -14 14 -25 3z"/>
<path d="M2710 600 c-11 -7 -10 -12 11 -29 27 -23 35 -25 44 -11 3 6 -1 10
-10 10 -8 0 -19 9 -23 20 -5 14 -11 17 -22 10z"/>
<path d="M1237 588 c-2 -7 0 -24 5 -38 11 -31 27 -11 20 26 -5 26 -17 32 -25
12z"/>
<path d="M2804 546 c4 -12 1 -23 -6 -28 -11 -6 -11 -8 0 -8 19 0 27 29 12 43
-10 10 -12 8 -6 -7z"/>
<path d="M1686 495 c-7 -18 0 -35 14 -35 5 0 7 10 5 21 -6 29 -11 33 -19 14z"/>
<path d="M2487 486 c-3 -8 4 -22 15 -33 21 -17 21 -17 15 0 -4 10 -7 25 -7 33
0 18 -16 18 -23 0z"/>
<path d="M2533 485 c0 -8 4 -15 9 -15 4 0 8 7 8 15 0 8 -4 15 -8 15 -5 0 -9
-7 -9 -15z"/>
<path d="M1110 480 c0 -5 5 -10 11 -10 5 0 7 5 4 10 -3 6 -8 10 -11 10 -2 0
-4 -4 -4 -10z"/>
<path d="M2968 483 c6 -2 12 -11 12 -19 0 -9 5 -12 10 -9 13 8 -6 35 -24 34
-7 0 -6 -2 2 -6z"/>
<path d="M1670 451 c0 -10 39 -36 45 -29 2 2 -8 11 -21 21 -13 10 -24 13 -24
8z"/>
<path d="M2867 438 c-6 -24 0 -336 7 -378 3 -14 5 -33 5 -42 1 -13 9 -18 32
-18 l31 0 -4 120 c-1 66 -1 120 2 120 3 0 44 -16 91 -35 48 -19 102 -38 120
-42 33 -6 30 -2 -61 93 -52 54 -97 100 -101 102 -3 1 -11 -9 -17 -23 -6 -14
-18 -25 -25 -25 -14 0 -18 13 -17 63 0 18 -4 26 -11 22 -7 -5 -9 0 -7 12 3 20
-17 53 -32 53 -4 0 -10 -10 -13 -22z"/>
<path d="M1130 440 c0 -5 5 -10 11 -10 5 0 7 5 4 10 -3 6 -8 10 -11 10 -2 0
-4 -4 -4 -10z"/>
<path d="M1070 436 c0 -2 7 -9 15 -16 13 -11 14 -10 9 4 -5 14 -24 23 -24 12z"/>
<path d="M1268 416 c-3 -14 -2 -26 3 -26 14 0 20 20 11 36 -8 14 -10 12 -14
-10z"/>
<path d="M2440 420 c-8 -14 -8 -25 0 -38 9 -15 10 -14 8 8 -2 18 2 25 14 24
10 -1 14 4 11 12 -7 20 -21 17 -33 -6z"/>
<path d="M2796 408 c3 -20 6 -53 7 -72 1 -20 4 -30 8 -24 4 7 9 -6 12 -28 l4
-39 1 38 c1 20 7 37 12 37 12 0 12 64 0 100 -8 24 -8 24 -9 3 -1 -13 -5 -23
-9 -23 -5 0 -14 10 -20 23 -10 19 -11 17 -6 -15z m44 -33 c0 -14 -4 -25 -10
-25 -11 0 -14 33 -3 43 11 11 13 8 13 -18z"/>
<path d="M1111 406 c-7 -8 -8 -17 -3 -20 6 -3 15 1 21 8 7 8 8 17 3 20 -6 3
-15 -1 -21 -8z"/>
<path d="M1168 389 c5 -13 13 -24 18 -24 5 0 15 -4 22 -8 8 -5 12 -3 12 7 0 9
-5 16 -12 16 -6 0 -20 8 -30 17 -18 16 -18 16 -10 -8z"/>
<path d="M2471 384 c0 -11 3 -14 6 -6 3 7 2 16 -1 19 -3 4 -6 -2 -5 -13z"/>
<path d="M2557 383 c3 -7 6 -13 8 -13 2 0 5 6 8 13 3 8 -1 14 -8 14 -7 0 -11
-6 -8 -14z"/>
<path d="M2490 376 c0 -9 5 -16 10 -16 6 0 10 4 10 9 0 6 -4 13 -10 16 -5 3
-10 -1 -10 -9z"/>
<path d="M2590 381 c0 -6 5 -13 10 -16 6 -3 10 -11 10 -17 0 -6 -7 -5 -17 3
-16 13 -17 12 -4 -3 12 -16 16 -16 42 -2 16 8 27 20 23 25 -4 7 -10 7 -17 0
-15 -15 -27 -14 -27 4 0 8 -4 15 -10 15 -5 0 -10 -4 -10 -9z"/>
<path d="M2941 368 c0 -7 4 -22 8 -32 8 -20 8 -20 13 0 3 11 -1 25 -9 32 -10
10 -13 10 -12 0z"/>
<path d="M2514 334 c3 -8 6 -20 6 -25 0 -5 5 -9 10 -9 16 0 11 37 -6 44 -12 5
-15 2 -10 -10z"/>
<path d="M1190 326 c0 -8 5 -18 10 -21 6 -3 10 3 10 14 0 12 -4 21 -10 21 -5
0 -10 -6 -10 -14z"/>
<path d="M1231 323 c8 -9 15 -10 24 -3 6 5 15 7 18 3 4 -3 7 -2 7 4 0 5 -13
10 -30 10 -24 0 -27 -3 -19 -14z"/>
<path d="M2450 331 c0 -5 -2 -15 -5 -23 -4 -9 5 -14 25 -15 35 -3 41 20 11 37
-24 12 -31 13 -31 1z"/>
<path d="M2687 317 c-15 -19 -19 -20 -27 -7 -7 11 -12 12 -21 3 -14 -14 -2
-36 16 -29 7 2 18 -1 25 -7 10 -10 12 -8 6 7 -4 12 -2 17 6 13 8 -3 14 5 14
19 2 29 3 29 -19 1z"/>
<path d="M1172 298 c8 -12 20 -24 27 -26 18 -6 -9 36 -28 43 -11 5 -11 2 1
-17z"/>
<path d="M2550 289 c0 -5 5 -7 10 -4 6 3 10 8 10 11 0 2 -4 4 -10 4 -5 0 -10
-5 -10 -11z"/>
<path d="M2840 266 c0 -8 5 -18 10 -21 6 -3 10 1 10 9 0 8 -4 18 -10 21 -5 3
-10 -1 -10 -9z"/>
<path d="M1140 260 c0 -5 5 -10 10 -10 6 0 10 5 10 10 0 6 -4 10 -10 10 -5 0
-10 -4 -10 -10z"/>
<path d="M2790 259 c0 -5 5 -7 10 -4 6 3 10 8 10 11 0 2 -4 4 -10 4 -5 0 -10
-5 -10 -11z"/>
<path d="M2700 251 c0 -5 7 -14 15 -21 13 -10 15 -9 15 9 0 12 -6 21 -15 21
-8 0 -15 -4 -15 -9z"/>
<path d="M1220 239 c0 -5 5 -7 10 -4 6 3 10 8 10 11 0 2 -4 4 -10 4 -5 0 -10
-5 -10 -11z"/>
<path d="M1680 241 c-8 -6 -18 -7 -22 -5 -4 3 -8 1 -8 -5 0 -6 10 -15 22 -22
17 -9 20 -9 15 4 -3 8 0 20 6 26 13 13 7 14 -13 2z"/>
<path d="M2778 233 c-23 -6 -23 -33 0 -33 11 0 18 7 18 20 0 11 0 19 -1 19 0
-1 -8 -3 -17 -6z"/>
<path d="M2550 195 c0 -8 5 -15 10 -15 6 0 10 7 10 15 0 8 -4 15 -10 15 -5 0
-10 -7 -10 -15z"/>
<path d="M2727 203 c-3 -5 10 -27 29 -48 19 -22 31 -32 28 -22 -3 9 -10 17
-15 17 -4 0 -6 6 -3 13 5 15 -31 53 -39 40z"/>
<path d="M2623 185 c-7 -8 -13 -19 -13 -25 0 -5 -4 -10 -10 -10 -5 0 -10 5
-10 12 0 6 -3 8 -6 5 -4 -3 7 -22 24 -41 23 -27 32 -31 36 -20 3 8 2 13 -2 10
-5 -3 -9 11 -9 30 -1 40 13 45 27 9 10 -25 20 -33 20 -16 0 6 -10 21 -22 35
-20 22 -25 23 -35 11z m7 -45 c0 -5 -4 -10 -10 -10 -5 0 -10 5 -10 10 0 6 5
10 10 10 6 0 10 -4 10 -10z"/>
<path d="M2833 165 c0 -22 2 -30 4 -17 2 12 2 30 0 40 -3 9 -5 -1 -4 -23z"/>
<path d="M1210 180 c0 -5 5 -10 10 -10 6 0 10 5 10 10 0 6 -4 10 -10 10 -5 0
-10 -4 -10 -10z"/>
<path d="M1625 179 c-11 -17 1 -21 15 -4 8 9 8 15 2 15 -6 0 -14 -5 -17 -11z"/>
<path d="M1191 144 c0 -11 3 -14 6 -6 3 7 2 16 -1 19 -3 4 -6 -2 -5 -13z"/>
<path d="M2698 108 c7 -7 12 -21 12 -32 0 -16 3 -17 9 -8 6 11 10 10 15 -4 4
-10 3 -20 -3 -22 -21 -7 14 -42 42 -42 23 0 26 2 15 14 -9 10 -15 11 -20 2 -5
-8 -11 -7 -20 2 -10 10 -10 14 1 22 12 7 9 15 -15 43 -16 20 -33 36 -38 36 -6
1 -5 -4 2 -11z"/>
<path d="M2660 80 c0 -11 4 -20 9 -20 11 0 22 26 14 34 -12 12 -23 5 -23 -14z"/>
<path d="M2622 55 c0 -16 2 -22 5 -12 2 9 2 23 0 30 -3 6 -5 -1 -5 -18z"/>
<path d="M1551 30 c0 -33 1 -34 10 -11 6 16 6 28 -1 35 -7 7 -10 -1 -9 -24z"/>
<path d="M2685 40 c3 -5 11 -10 16 -10 6 0 7 5 4 10 -3 6 -11 10 -16 10 -6 0
-7 -4 -4 -10z"/>
<path d="M2592 20 c0 -14 2 -19 5 -12 2 6 2 18 0 25 -3 6 -5 1 -5 -13z"/>
<path d="M1505 10 c-3 -5 1 -10 9 -10 9 0 16 5 16 10 0 6 -4 10 -9 10 -6 0
-13 -4 -16 -10z"/>
</g>
</svg>
